<?xml version="1.0" encoding="UTF-8"?>
<svg id="Layer_1" data-name="Layer 1" xmlns="http://www.w3.org/2000/svg" version="1.1" viewBox="0 0 24 24">
  <defs>
    <style>
      .cls-1 {
        stroke-width: 2px;
      }

      .cls-1, .cls-2 {
        fill: none;
        stroke: #000;
        stroke-linejoin: round;
      }

      .cls-2 {
        stroke-linecap: round;
        stroke-width: 2px;
      }

      .cls-3 {
        display: none;
      }
    </style>
  </defs>
  <path class="cls-1" d="M9.6,19.4c-1.5-.5-2.9-1.4-3.9-2.8"/>
  <path class="cls-1" d="M18.3,16.6c-.5.6-1,1.2-1.7,1.7s-1.4.9-2.2,1.1"/>
  <path class="cls-1" d="M19.4,9.8c.2.7.3,1.5.3,2.3"/>
  <path class="cls-2" d="M16.7,8.6c-1.9-2.6-5.5-3.2-8-1.3s-3.2,5.5-1.3,8l-3.2,2.3C1,13.3,2,7.3,6.3,4.1s10.4-2.2,13.6,2.2"/>
  <path class="cls-2" d="M9,21.2c1.9.6,4,.6,6,0l-1.2-3.8c-1.2.4-2.4.4-3.6,0l-1.2,3.8Z"/>
  <path class="cls-2" d="M19.8,17.7c1.2-1.7,1.9-3.7,1.9-5.7h-4c0,1.2-.4,2.4-1.1,3.4l3.2,2.3Z"/>
  <polyline class="cls-2" points="20.3 6 19.8 9.5 16.2 8.9"/>
  <g class="cls-3">
    <line class="cls-2" x1="21.1" y1="-.5" x2="2.9" y2="24.5"/>
    <line class="cls-2" x1="26.7" y1="7.2" x2="-2.7" y2="16.8"/>
    <line class="cls-2" x1="26.7" y1="16.8" x2="-2.7" y2="7.2"/>
    <line class="cls-2" x1="21.1" y1="24.5" x2="2.9" y2="-.5"/>
  </g>
</svg>