<?xml version="1.0" encoding="utf-8"?>
<!-- Generator: Adobe Illustrator 28.0.0, SVG Export Plug-In . SVG Version: 6.00 Build 0)  -->
<svg version="1.1" id="Layer_1" xmlns="http://www.w3.org/2000/svg" xmlns:xlink="http://www.w3.org/1999/xlink" x="0px" y="0px"
	 viewBox="0 0 50 50" style="enable-background:new 0 0 50 50;" xml:space="preserve">
<style type="text/css">
	.st0{fill:#FFFFFF;}
</style>
<path class="st0" d="M32.2,2.1l-4.4,1.7l0.8,3.8c-0.3,0.3-0.6,0.7-1,1l-3.8-0.8l-1.8,4.3l3.2,2.1c0,0.5,0,1.1,0,1.6l-3.3,2l1.7,4.4
	l3.7-0.8c0.3,0.4,0.7,0.8,1.1,1.1l-0.8,3.7L32,28l2.1-3.2c0.5,0,1,0,1.6,0l2,3.3l4.4-1.7l-0.8-4c0.4-0.3,0.7-0.7,1.1-1.1l3.8,1
	l1.9-4.4l-3.3-2c0-0.5,0-1,0-1.5l3.3-2l-1.7-4.4l-3.8,0.8c-0.3-0.4-0.7-0.8-1.1-1.1L42.2,4l-4.3-1.8l-2,3.2c-0.5-0.1-1.1-0.1-1.6,0
	L32.2,2.1z M35,11c2.2,0,4,1.8,4,4s-1.8,4-4,4s-4-1.8-4-4S32.8,11,35,11z M13.5,20l-0.6,4c-0.6,0.2-1.1,0.4-1.7,0.7l-3.3-2.4
	l-3.5,3.5l2.3,3.4c-0.3,0.5-0.5,1.1-0.7,1.7l-4,0.8v4.9l4,0.7c0.2,0.6,0.4,1.1,0.7,1.7l-2.4,3.2l3.5,3.5l3.4-2.3
	c0.5,0.3,1.1,0.5,1.7,0.7l0.6,4h4.9l0.7-4c0.6-0.2,1.1-0.4,1.7-0.7l3.3,2.4l3.5-3.5l-2.4-3.4c0.3-0.5,0.5-1.1,0.7-1.7l4.2-0.8v-4.9
	l-4.1-0.6c-0.2-0.6-0.4-1.1-0.7-1.7l2.4-3.3l-3.5-3.6l-3.4,2.4c-0.5-0.3-1.1-0.5-1.6-0.7l-0.6-4H13.5z M16,30c2.2,0,4,1.8,4,4
	s-1.8,4-4,4s-4-1.8-4-4S13.8,30,16,30z"/>
</svg>
