<?xml version="1.0" encoding="utf-8"?>
<!-- Generator: Adobe Illustrator 28.0.0, SVG Export Plug-In . SVG Version: 6.00 Build 0)  -->
<svg version="1.1" id="Layer_1" xmlns="http://www.w3.org/2000/svg" xmlns:xlink="http://www.w3.org/1999/xlink" x="0px" y="0px"
	 viewBox="0 0 50 50" style="enable-background:new 0 0 50 50;" xml:space="preserve">
<style type="text/css">
	.st0{fill:#FFFFFF;}
</style>
<path class="st0" d="M25.1,50C11,50,0.4,39.1,0.4,24.8c0-14.1,10.8-24.9,25-24.9c13.4,0,24.1,11,24.1,25.1
	C49.6,39.1,38.9,50,25.1,50z M24.8,3.6C13.3,3.6,4.1,13.2,4.1,25c0,11.9,9.2,21.3,20.9,21.3c11.9,0,20.8-9.5,20.8-21.5
	C45.9,12.9,36.8,3.6,24.8,3.6z M19.8,37.7v-1.8c2.3-0.5,2.5-0.7,2.5-2.1V22.2c0-1.3-0.4-1.7-2.6-2.1v-1.8H28V34c0,1.3,0.6,1.8,2.3,2
	v1.8L19.8,37.7L19.8,37.7z M25.1,16.1c-2.1,0-3.4-1.4-3.4-3.4c0-2.1,1.3-3.5,3.5-3.5c2,0,3.4,1.4,3.4,3.5
	C28.6,14.7,27.2,16.1,25.1,16.1z"/>
</svg>
